<svg xmlns="http://www.w3.org/2000/svg" viewBox="0 0 316.39 197.78"><defs><style>.cls-1{fill:#ff8500;}.cls-2{fill:#378786;}.cls-3{fill:#4fccc6;}.cls-4{fill:#ffc200;}</style></defs><title>logo_1</title><g id="Layer_2" data-name="Layer 2"><g id="Layer_1-2" data-name="Layer 1"><path class="cls-1" d="M21.5,184.07H40.88l-1.73,13.55H7.8V179.51a7.26,7.26,0,0,0,.16-2V174a3.36,3.36,0,0,1,.15-1.42,11.94,11.94,0,0,1,.08-1.41,9.15,9.15,0,0,0,.08-.95V122.63l1.1-9.29v-2.52a2.11,2.11,0,0,1,.16-1.1c.32-.84,1.29-1.5,2.92-2s4.64-.71,9.05-.71Z"/><path class="cls-1" d="M51.91,110.35c1.36-.11,2.62-.21,3.78-.32l3.47-.31c1.78-.21,3.41-.37,4.88-.48s3-.21,4.73-.31q4.1-.32,8.11-.48t8-.15v16.22H63.57v19.85H79.48v16.07H63.57v23.48H83.1l-1.73,13.7H49.86q0-10.55-.39-21.74t-.4-22.21v-5q0-4.26.48-9.45l.15-1.11v-9.61q0-13.38,1.74-17.8Z"/><path class="cls-1" d="M132.41,180.92l-.63-2.83-1.1-.63-2.68-.79-15.28-1.42q-.63.8-1.26,1.5a3.73,3.73,0,0,0-.79,1.18,26.38,26.38,0,0,0-.87,3.62,41,41,0,0,1-1.33,5.2c-.53,1.58-1,3.05-1.34,4.41s-.66,2.37-.87,3l-2.05,1.57H91l25.36-89.17h22.53v12h-2.52c-1.16,0-1.81.45-2,1.34a14.71,14.71,0,0,0-.24,2.6v.31a7.1,7.1,0,0,0,.08.87,8.76,8.76,0,0,1,.08,1.18v1.26l16.54,71.52H137c-.21,0-.55-.44-1-1.34a8.12,8.12,0,0,1-.87-2.12Zm-17.49-19.53,6.46.31,5-.31q.94,0,1.11-1.26c.1-.84.16-1.37.16-1.58l-.16-2.2q-.48-2.68-1.5-7.64t-2-9.06c-.42-1.79-.73-3.18-.94-4.18a12.44,12.44,0,0,1-.32-1.81l-1.1-2-1,.95Z"/><path class="cls-1" d="M154.78,154.93a96.47,96.47,0,0,1,1.5-16.62,52.26,52.26,0,0,1,5.28-15.68A33.83,33.83,0,0,1,171.64,111q6.3-4.58,16.07-4.57c.63,0,1.42,0,2.36.08a17.33,17.33,0,0,1,2.21.23h.79l2.2,2v15.75A36.59,36.59,0,0,0,182,126.65a21.61,21.61,0,0,0-8.82,6.14,24.53,24.53,0,0,0-4.89,9.85,52.61,52.61,0,0,0-1.49,13.08q0,2.84.31,7.56a51.67,51.67,0,0,0,1.5,9.37,23.71,23.71,0,0,0,3.54,8,7.54,7.54,0,0,0,6.46,3.31h1.26a12.16,12.16,0,0,0,2.44-.24c.79-.16,1.19-.55,1.19-1.18V164.7h-.79c-1.16,0-2,0-2.6-.08a1.77,1.77,0,0,1-1.34-.71,3.29,3.29,0,0,1-.55-1.81c-.06-.79-.08-1.92-.08-3.39v-6l.16-.63c0-.31.29-.76.86-1.34s1-.86,1.34-.86H197v9.45c-.1.74-.18,1.44-.23,2.13s-.08,1.39-.08,2.12v4.57q0,5.35-.24,10.64a29.46,29.46,0,0,1-1.89,9.53,15.28,15.28,0,0,1-5.12,6.85q-3.47,2.59-9.92,2.6-8.51,0-13.47-4.25a26,26,0,0,1-7.41-10.64A52.74,52.74,0,0,1,155.49,169Q154.79,161.39,154.78,154.93Z"/><path class="cls-1" d="M219.85,108.77c0,3.68,0,7.48-.08,11.42s-.13,7.75-.24,11.42q-.15,5.05-.23,9.69c-.06,3.1-.08,5.91-.08,8.43a107,107,0,0,0,.71,12.45,35.93,35.93,0,0,0,3.38,11.65q2.52,5.05,6.15,6.31l1.26-.48c.52-.21,1-.36,1.34-.47a6.72,6.72,0,0,0,1.18-.47l-.16.16c.63-.64,1.52-2.47,2.68-5.52q.94-2.67,1.65-18.59t1.5-46.63l15.91.63-2,55.3q-1.1,8-2.28,13.47a34.28,34.28,0,0,1-2.76,8.42,21.06,21.06,0,0,1-8.51,9.14q-5,2.68-14,2.68a17,17,0,0,1-4.09-2.28,17.54,17.54,0,0,1-3.23-3.31,43.16,43.16,0,0,1-3-4.57c-1-1.73-2.12-3.76-3.38-6.07A53.62,53.62,0,0,1,206.14,166a90.35,90.35,0,0,1-1.57-16.62V139.33a5.62,5.62,0,0,1,.15-1.73q.17-5.52.24-12.76t.08-16.7Z"/><path class="cls-1" d="M264.9,110.35c1.37-.11,2.62-.21,3.78-.32l3.47-.31c1.78-.21,3.41-.37,4.88-.48s3.05-.21,4.73-.31q4.1-.32,8.11-.48t8-.15v16.22H276.56v19.85h15.91v16.07H276.56v23.48h19.53l-1.73,13.7H262.85q0-10.55-.39-21.74t-.4-22.21v-5q0-4.26.48-9.45l.16-1.11v-9.61q0-13.38,1.73-17.8Z"/><path class="cls-2" d="M265,17.91c-1.18-.57-1.93.42-3.52,1.31-7.06,3.94-14.51,8.13-22.44,10-8.92,2.08-18,3.71-26.94,5.55-7.91,1.63-12,4.48-11.25,12.94a55.06,55.06,0,0,0,1.48,9.75c1.24,4.43,4.18,10.64,8.36,13,1.55-2.47,1.72-5.83,3.65-8.06,2.11-2.43,6-2,9-1.36a23.64,23.64,0,0,1,14.45,9.46c3.78,5.33,5.33,12.2,10.39,16.62,3.94,3.44,14.91,7,19.24,2.83,3.38-3.27,5.36-9,7.67-13.08l8.7-15.32a3,3,0,0,0,.46-1.21c.11-1.95-2.52-5-3.39-6.56-1.64-3-3.19-6.1-4.65-9.21a169.9,169.9,0,0,1-7.57-19.19c-.62-1.93-1.24-5.41-2.79-6.83A3.34,3.34,0,0,0,265,17.91Z"/><path class="cls-3" d="M268.63,25.33c.3.89.59,1.79.91,2.68,1.36,9.92-22.27,11.78-22.27,11.78-32.06,4.27-35.47,31-36.54,30.61h0c-4.18-2.34-7.12-8.55-8.36-13a53.27,53.27,0,0,1-1.47-9.75c-.76-8.47,3.33-11.31,11.24-12.94,9-1.85,18-3.47,27-5.55,7.92-1.84,15.37-6,22.43-10,1.6-.9,2.34-1.88,3.52-1.31a3.36,3.36,0,0,1,.82.59C267.39,19.92,268,23.4,268.63,25.33Z"/><polygon class="cls-4" points="289.73 0 293.25 25.67 316.39 37.32 293.06 48.6 289.13 74.2 271.2 55.51 245.63 59.68 257.87 36.85 246 13.82 271.5 18.4 289.73 0"/><path class="cls-2" d="M51.38,89.4,37.81,51.94,24.33,89.4H17.24L0,43.28H7.18l13.65,39,13.39-39H41.4L55,82.31l13.47-39h7.09L58.47,89.4Z"/><path class="cls-2" d="M91.37,30.06a4.47,4.47,0,1,1-8.92,0,4.47,4.47,0,1,1,8.92,0ZM83.58,89.4V43.28h6.74V89.4Z"/><path class="cls-2" d="M133.91,47.21l-2.63,5.43a24.27,24.27,0,0,0-12.51-3.76c-5.17,0-9.1,1.84-9.1,6.12,0,10.24,25.73,5,25.73,21.53,0,9.11-8.05,13.13-16.89,13.13-6.57,0-13.31-2.27-17.68-6.47L103.45,78a23.35,23.35,0,0,0,15.32,5.87c5.42,0,9.8-2,9.89-6.57.26-11.11-25.56-5.42-25.47-21.79,0-8.84,7.61-12.52,16-12.52A26.7,26.7,0,0,1,133.91,47.21Z"/><path class="cls-2" d="M189.31,61V89.4h-6.83V62.79c0-8.14-4.9-12.95-13-12.95-9.8.09-15.58,7-15.58,16.89V89.4H147V24.46h6.82V53.6C157,46.43,163.32,43.1,171.81,43,182.83,43,189.31,49.84,189.31,61Z"/></g></g></svg>